<svg xmlns="http://www.w3.org/2000/svg" width="232.993" height="202.284" viewBox="0 0 232.993 202.284">
  <g id="Asset_1" data-name="Asset 1" transform="translate(123.543 -616)">
    <g id="OBJECTS" transform="translate(-267 616)">
      <path id="Path_63" data-name="Path 63" d="M195.545,113.65l-4.04.506a.649.649,0,0,0-.528.407c-.671,1.7-4.4,11.216-4.6,11.766s.462,1.64.892,2.433a.649.649,0,0,0,1.013.176l3.742-3.379a.65.65,0,0,0,.176-.253l4.029-10.776a.649.649,0,0,0-.682-.881Z" transform="translate(-2.467 11.452)" fill="#ffbd26"/>
      <path id="Path_64" data-name="Path 64" d="M195.7,111.73l-9.477,1.189s-6.329,15.872-6.714,16.962,2.2,5.437,2.2,5.437l7.7-6.945Z" transform="translate(5.666 11.259)" fill="#3d333f"/>
      <path id="Path_65" data-name="Path 65" d="M182.189,112.919l9.477-1.189-2.554,6.824-9.642,1.211Z" transform="translate(9.701 11.259)" fill="#474c58"/>
      <path id="Path_66" data-name="Path 66" d="M180.758,112.919l9.477-1.189-1.211,3.236-9.554,1.2Z" transform="translate(11.131 11.259)" fill="#b6c0ca"/>
      <ellipse id="Ellipse_3" data-name="Ellipse 3" cx="23.819" cy="23.819" rx="23.819" ry="23.819" transform="translate(193.236 202.284) rotate(-96.99)" fill="#422c3e"/>
      <ellipse id="Ellipse_4" data-name="Ellipse 4" cx="23.819" cy="23.819" rx="23.819" ry="23.819" transform="translate(193.236 202.284) rotate(-96.99)" fill="#362c37"/>
      <ellipse id="Ellipse_5" data-name="Ellipse 5" cx="14.474" cy="14.474" rx="14.474" ry="14.474" transform="translate(201.374 191.871) rotate(-96.99)" fill="#29252f"/>
      <ellipse id="Ellipse_6" data-name="Ellipse 6" cx="12.922" cy="12.922" rx="12.922" ry="12.922" transform="translate(202.726 190.142) rotate(-96.99)" fill="#c6ccd1"/>
      <ellipse id="Ellipse_7" data-name="Ellipse 7" cx="11.579" cy="11.579" rx="11.579" ry="11.579" transform="translate(203.895 188.646) rotate(-96.99)" fill="#e4e0e5"/>
      <ellipse id="Ellipse_8" data-name="Ellipse 8" cx="9.059" cy="9.059" rx="9.059" ry="9.059" transform="translate(206.091 185.837) rotate(-96.99)" fill="#c6ccd1"/>
      <ellipse id="Ellipse_9" data-name="Ellipse 9" cx="4.623" cy="4.623" rx="4.623" ry="4.623" transform="translate(209.954 180.894) rotate(-96.99)" fill="#362c37"/>
      <path id="Path_67" data-name="Path 67" d="M106.986,154.406l37.424-4.689a2.587,2.587,0,0,0,2.2-2.884h0a2.587,2.587,0,0,0-2.884-2.2L106.3,149.321a2.587,2.587,0,0,0-2.2,2.884h0a2.587,2.587,0,0,0,2.884,2.2Z" transform="translate(137.715 14.57)" fill="#3d333f"/>
      <path id="Path_68" data-name="Path 68" d="M148.079,162.623l33.791-4.238a9.059,9.059,0,0,0,7.837-10.082h0a9.059,9.059,0,0,0-10.082-7.837L145.833,144.7A9.059,9.059,0,0,0,138,154.786h0A9.059,9.059,0,0,0,148.079,162.623Z" transform="translate(57.316 14.146)" fill="#1d1925"/>
      <path id="Path_69" data-name="Path 69" d="M55.79,69.6l2.686,1.222S68.811,97.238,82.8,103.072l1.1,4.348S58.586,98.119,55.79,69.6Z" transform="translate(253.599 7.017)" fill="#0a7ce6"/>
      <path id="Path_70" data-name="Path 70" d="M169.843,92.285s-3.137-9.455-7.7-8.883-13.825,4.865-17.886,3.588l-4.062-1.277s-11.249.154-19.02,15.949Z" transform="translate(95.694 8.404)" fill="#422c3e"/>
      <path id="Path_71" data-name="Path 71" d="M51.718,147.969c-5.867-46.8,42.014-49.928,42.014-49.928L125,94.123c2.5-.308,2.719,2.972,2.719,2.972,1.354,16.995-12.812,16.037-15.256,30.819S124.023,148.5,124.023,148.5l29.62-3.709c8.64-1.1,12.108-4.832,15.7-13.274,9.906-28.156-9.026-65.756-9.026-65.756l7.7-.958s8.464,36.378,31.92,42.806l2.444,15.3S190.67,114.5,182.8,132.647s-13.2,19.328-20.9,20.264l-40.957,5.14-8.806,1.1c-7.892.991-17.061-15.7-18.921-19.273Z" transform="translate(140.149 6.534)" fill="#0aa1e6"/>
      <ellipse id="Ellipse_10" data-name="Ellipse 10" cx="23.819" cy="23.819" rx="23.819" ry="23.819" transform="translate(329.165 185.233) rotate(-96.99)" fill="#422c3e"/>
      <ellipse id="Ellipse_11" data-name="Ellipse 11" cx="23.819" cy="23.819" rx="23.819" ry="23.819" transform="translate(329.165 185.233) rotate(-96.99)" fill="#362c37"/>
      <ellipse id="Ellipse_12" data-name="Ellipse 12" cx="14.474" cy="14.474" rx="14.474" ry="14.474" transform="translate(337.303 174.82) rotate(-96.99)" fill="#29252f"/>
      <ellipse id="Ellipse_13" data-name="Ellipse 13" cx="12.922" cy="12.922" rx="12.922" ry="12.922" transform="translate(338.655 173.091) rotate(-96.99)" fill="#c6ccd1"/>
      <ellipse id="Ellipse_14" data-name="Ellipse 14" cx="11.579" cy="11.579" rx="11.579" ry="11.579" transform="translate(339.824 171.594) rotate(-96.99)" fill="#e4e0e5"/>
      <ellipse id="Ellipse_15" data-name="Ellipse 15" cx="9.059" cy="9.059" rx="9.059" ry="9.059" transform="translate(342.02 168.786) rotate(-96.99)" fill="#c6ccd1"/>
      <ellipse id="Ellipse_16" data-name="Ellipse 16" cx="4.623" cy="4.623" rx="4.623" ry="4.623" transform="translate(345.883 163.843) rotate(-96.99)" fill="#362c37"/>
      <path id="Path_72" data-name="Path 72" d="M26.381,147.832a1.684,1.684,0,0,1-1.9-1.541,32.592,32.592,0,0,1,54.716-26.549h0a1.673,1.673,0,0,1,.363,1.9c-.914,2.036-3.577,6.208-10.567,7.958a1.739,1.739,0,0,1-.363,0c-2.091.077-21.9.958-27.088,8.31-5.5,7.7-4.744,7.4-6.714,8.178l-1.794.7a1.674,1.674,0,0,1-.385.1Z" transform="translate(292.386 11.183)" fill="#0a7ce6"/>
      <path id="Path_73" data-name="Path 73" d="M206.708,146.383c-1.981-15.784-9.037-34.749-33.021-31.744-26.736,3.3-42.179,25.14-40.208,40.924Z" transform="translate(45.467 11.52)" fill="#0a7ce6"/>
      <path id="Path_74" data-name="Path 74" d="M98.7,68.455l-5.448.682c-7.7.969-14.408-2.1-15-6.857v-.11C77.658,57.415,83.4,52.781,91.1,51.812l5.448-.682Z" transform="translate(214.12 5.157)" fill="#0a7ce6"/>
      <path id="Path_75" data-name="Path 75" d="M79,60.119c.98-3.974,6.12-7.485,12.7-8.31l5.129-.638,1.618,13.219-5.129.638C86.782,65.864,80.937,63.729,79,60.119Z" transform="translate(213.504 5.161)" fill="#0aa1e6"/>
      <rect id="Rectangle_16" data-name="Rectangle 16" width="5.228" height="17.457" transform="translate(317.527 73.024) rotate(172.85)" fill="#fce5f4"/>
      <rect id="Rectangle_17" data-name="Rectangle 17" width="5.228" height="10.688" transform="translate(317.521 73.027) rotate(172.85)" fill="#cccaca"/>
      <rect id="Rectangle_18" data-name="Rectangle 18" width="5.228" height="3.005" transform="translate(317.513 73.023) rotate(172.85)" fill="#98b1b1"/>
      <path id="Path_76" data-name="Path 76" d="M151.618,153.746l19.251-2.389a1.937,1.937,0,0,0,1.684-2.2h0a1.937,1.937,0,0,0-2.2-1.684l-19.2,2.411a1.937,1.937,0,0,0-1.684,2.2h0a1.937,1.937,0,0,0,2.146,1.662Z" transform="translate(61.834 14.856)" fill="#3d333f"/>
      <path id="Path_77" data-name="Path 77" d="M174.043,154.213l.517-.066a1.937,1.937,0,0,0,1.684-2.2h0a1.937,1.937,0,0,0-2.2-1.684l-.517.066a1.937,1.937,0,0,0-1.684,2.2h0a1.937,1.937,0,0,0,2.2,1.684Z" transform="translate(33.52 15.137)" fill="#3d333f"/>
      <path id="Path_78" data-name="Path 78" d="M156.069,137.955l21.508-2.7a2.135,2.135,0,0,0,1.849-2.378h0a2.135,2.135,0,0,0-2.378-1.849l-21.508,2.7a2.135,2.135,0,0,0-1.849,2.378h0A2.135,2.135,0,0,0,156.069,137.955Z" transform="translate(50.316 13.201)" fill="#0a6bcb"/>
      <path id="Path_79" data-name="Path 79" d="M155.239,144.635l21.508-2.7a2.135,2.135,0,0,0,1.849-2.378h0a2.135,2.135,0,0,0-2.377-1.849l-21.508,2.7a2.135,2.135,0,0,0-1.849,2.378h0A2.135,2.135,0,0,0,155.239,144.635Z" transform="translate(52.06 13.874)" fill="#0a6bcb"/>
      <path id="Path_80" data-name="Path 80" d="M126.609,101.631l21.122-2.653A2.135,2.135,0,0,0,149.58,96.6h0a2.135,2.135,0,0,0-2.377-1.849L126.081,97.4a2.135,2.135,0,0,0-1.849,2.378h0a2.135,2.135,0,0,0,2.377,1.849Z" transform="translate(112.588 9.548)" fill="#33bde6"/>
      <path id="Path_81" data-name="Path 81" d="M152.079,102.279l.958-.121a2.135,2.135,0,0,0,1.849-2.378h0a2.135,2.135,0,0,0-2.377-1.849l-.958.121a2.135,2.135,0,0,0-1.849,2.377h0A2.135,2.135,0,0,0,152.079,102.279Z" transform="translate(79.248 9.868)" fill="#33bde6"/>
      <path id="Path_82" data-name="Path 82" d="M41.666,119.724s-6.142-5.5-13.208-5.944a3.214,3.214,0,0,0-.715,3.6c.528,1.1,11.007,5.063,11.932,6.494C40.829,123.928,43.229,121.287,41.666,119.724Z" transform="translate(326.489 11.466)" fill="#0aa1e6"/>
      <path id="Path_83" data-name="Path 83" d="M48.2,113.45a9.191,9.191,0,0,0-5.316.143,2.08,2.08,0,0,0,.517,3.06c.837.418,4.59.33,5.118.4C49.257,116.7,49.257,113.582,48.2,113.45Z" transform="translate(303.168 11.4)" fill="#0aa1e6"/>
      <path id="Path_84" data-name="Path 84" d="M159.361,127.793a2.322,2.322,0,0,0,1.464-3.819c-.253-.3-6.329-7.2-15.113-6.681a2.322,2.322,0,0,0,.275,4.634c6.461-.374,11.282,5.03,11.326,5.085a2.322,2.322,0,0,0,2.047.781Z" transform="translate(79.451 11.817)" fill="#0aa1e6"/>
      <ellipse id="Ellipse_17" data-name="Ellipse 17" cx="2.124" cy="2.124" rx="2.124" ry="2.124" transform="translate(216.413 134.241) rotate(-97.15)" fill="#0aa1e6"/>
      <path id="Path_85" data-name="Path 85" d="M170.4,127.008a2.311,2.311,0,0,0,1.1-.429c2.278-1.673,6.549-2.774,8-3.049a2.322,2.322,0,0,0-.881-4.557c-.253,0-6.263,1.233-9.906,3.863a2.322,2.322,0,0,0,1.662,4.183Z" transform="translate(32.974 11.986)" fill="#0aa1e6"/>
      <path id="Path_86" data-name="Path 86" d="M83.346,58.779a1.156,1.156,0,0,0,.55-.231c3.588-2.708,9.422-3.115,9.488-3.115a1.163,1.163,0,1,0-.143-2.322c-.264,0-6.6.44-10.743,3.577a1.167,1.167,0,0,0,.848,2.08Z" transform="translate(214.122 5.356)" fill="#33bde6"/>
      <path id="Path_87" data-name="Path 87" d="M198.243,113.727a1.156,1.156,0,0,0,.462-2.146L179.267,99.716a1.161,1.161,0,1,0-1.211,1.981l19.427,11.865A1.1,1.1,0,0,0,198.243,113.727Z" transform="translate(4.257 10.032)" fill="#474c58"/>
      <path id="Path_88" data-name="Path 88" d="M177.209,105.638h0a1.552,1.552,0,0,0,1.343-1.728l-.7-5.636a1.552,1.552,0,0,0-1.728-1.343l-6.285.793a1.552,1.552,0,0,0-1.343,1.728l6.989,4.843A1.552,1.552,0,0,0,177.209,105.638Z" transform="translate(34.9 9.768)" fill="#474c58"/>
      <path id="Path_89" data-name="Path 89" d="M166.64,103.926l49.113-6.164a1.167,1.167,0,0,0,1.013-1.3h0a1.167,1.167,0,0,0-1.3-1.013l-49.113,6.164a1.167,1.167,0,0,0-1.013,1.3h0a1.167,1.167,0,0,0,1.3,1.013Z" transform="translate(0.154 9.619)" fill="#b6c0ca"/>
      <rect id="Rectangle_19" data-name="Rectangle 19" width="61.505" height="31.514" rx="1.805" transform="translate(211.447 90.716) rotate(163.191)" fill="#0aa1e6"/>
      <rect id="Rectangle_20" data-name="Rectangle 20" width="61.33" height="13.913" transform="translate(213.122 93.727) rotate(163)" fill="#0a7ce6"/>
      <rect id="Rectangle_21" data-name="Rectangle 21" width="61.33" height="6.967" rx="0.74" transform="translate(205.971 70.354) rotate(163)" fill="#0a7ce6"/>
      <rect id="Rectangle_22" data-name="Rectangle 22" width="63.774" height="5.415" transform="translate(206.329 67.058) rotate(163)" fill="#0aa1e6"/>
      <rect id="Rectangle_23" data-name="Rectangle 23" width="63.774" height="1.354" transform="translate(206.332 67.053) rotate(163)" fill="#0a7ce6"/>
      <ellipse id="Ellipse_18" data-name="Ellipse 18" cx="8.279" cy="17.385" rx="8.279" ry="17.385" transform="translate(164.614 102.019) rotate(-106.809)" fill="#eac945"/>
      <path id="Path_90" data-name="Path 90" d="M106.43,127.119l-.121,3.907s2.5,4.15,5.14,4.667,9.675.837,11.293,1.442.671,1.486.671,1.486l-21.034,2.135-8.74-9.488s2.455-3.885,4.942-4.909a13.054,13.054,0,0,1,2.1-2.289Z" transform="translate(172.15 12.502)" fill="#422c3e"/>
      <path id="Path_91" data-name="Path 91" d="M113.889,68.84l1.816,2.543S150.2,70.2,155.991,77.4s-17.611,44.578-17.963,56.675a17.017,17.017,0,0,1-10.908-3.952s13.032-40.2,13.329-44.919c0,0-11.59.792-15.41,1.948s-26.9,7.011-31.227-1.1c-1.849-2.928-4.249-7.353-4.249-7.353Z" transform="translate(143.415 6.941)" fill="#422c3e"/>
      <path id="Path_92" data-name="Path 92" d="M152.833,71.383S135.222,81.19,127,79.176c3.61-2.7,24.017-10.336,24.017-10.336Z" transform="translate(106.286 6.941)" fill="#2c2c2f"/>
      <path id="Path_93" data-name="Path 93" d="M128.311,78.777l13.759-6.2s2.917-22.014,15.751-37.424c0,0-4.942-8.718-12.108-6.153-7.441,2.972-40.594,25.151-31.3,54.815A146.139,146.139,0,0,0,128.311,78.777Z" transform="translate(116.951 2.882)" fill="#0aa1e6"/>
      <path id="Path_94" data-name="Path 94" d="M94.3,16.63s4.4,3.577,4.337,4.4c-.407.881-4.843,2.389-5.867,2.2S94.3,16.63,94.3,16.63Z" transform="translate(198.423 1.683)" fill="#d43614"/>
      <path id="Path_95" data-name="Path 95" d="M95.973,24.173A15.74,15.74,0,0,0,114.586,36.38c14.562-3.027,13.979-10.1,12.207-18.613a15.74,15.74,0,1,0-30.82,6.406Z" transform="translate(165.942 0.535)" fill="#fea77c"/>
      <path id="Path_96" data-name="Path 96" d="M129.671,11.822,112.984,20.3s4.931,16.1,1.4,18.15-13.362-.914-18.492-10.391c-3.3-6.2-5.25-18.932,5.834-25.195S122.252,1.5,126.4,8.806c0,0,5.966-.451,5.977.87S129.671,11.822,129.671,11.822Z" transform="translate(163.824 0.008)" fill="#eac945"/>
      <path id="Path_97" data-name="Path 97" d="M103.7,8.06,90.27,19.54S111.359,9.9,113.021,7.708C112.053,6.86,103.7,8.06,103.7,8.06Z" transform="translate(186.527 0.754)" fill="#0aa1e6"/>
      <ellipse id="Ellipse_19" data-name="Ellipse 19" cx="4.26" cy="4.26" rx="4.26" ry="4.26" transform="translate(267.595 32.232) rotate(-101.73)" fill="#bfa53a"/>
      <ellipse id="Ellipse_20" data-name="Ellipse 20" cx="2.124" cy="2.124" rx="2.124" ry="2.124" transform="translate(269.251 29.708) rotate(-101.73)" fill="#555"/>
      <path id="Path_98" data-name="Path 98" d="M95.156,49.328s-2.939,5.14-2.565,6.967,24.215,4.4,34.859,1.838c0,0,1.838-3.665,4.04-4.4s4.788,1.827,6.835,2.378,3.1,5.691,1.64,6.428-4.04-4.4-4.04-4.4-2.2,6.241-5.5,5.867l-3.3-.363S87.5,69.14,80.891,62.173c.737-7.7,6.967-15.773,6.967-15.773Z" transform="translate(169.225 4.681)" fill="#fea77c"/>
      <path id="Path_99" data-name="Path 99" d="M132.271,40.852l-7.11,13.153s-7.474,1.1-12.68-7.011c1.97-3.3,6.45-13.55,9.642-15.586s7.011-2.455,9.356.55a7.793,7.793,0,0,1,.792,8.894Z" transform="translate(141.797 3.009)" fill="#e4e0e5"/>
      <path id="Path_100" data-name="Path 100" d="M110.419,12.06s2.113,2.2,2.014,4.4c-.55.826-4.216,1.739-5.867.826-1.376,0-9.994,3.852-9.994,3.852l-.605-2.069Z" transform="translate(180.841 1.223)" fill="#555"/>
      <path id="Path_101" data-name="Path 101" d="M100.433,12.31a8.156,8.156,0,0,1,1.376,3.489c-.55.737-5.228,1.838-6.054.088C95.6,14.511,99.277,12.5,100.433,12.31Z" transform="translate(191.708 1.248)" fill="#e4e0e5"/>
      <ellipse id="Ellipse_21" data-name="Ellipse 21" cx="2.653" cy="2.653" rx="2.653" ry="2.653" transform="translate(302.179 62.187)" fill="#422c3e"/>
    </g>
  </g>
</svg>
